<svg width="437" height="74" viewBox="0 0 437 74" fill="none" xmlns="http://www.w3.org/2000/svg">
<g clip-path="url(#clip0_35_115)">
<path d="M33.3919 38.7247C34.2179 38.7866 34.64 38.9432 34.6669 39.1942C34.7028 39.4486 34.5322 39.7127 34.1641 39.9899C33.8049 40.2703 33.4098 40.4921 32.9788 40.6551C31.5646 41.3334 30.2177 42.0703 28.9382 42.8595C27.6542 43.6519 26.4061 44.4703 25.1849 45.3116C24.1298 46.016 23.5238 46.9225 23.3711 48.0247C23.1197 49.4399 22.7336 51.1812 22.2218 53.2421C21.7189 55.3095 21.0545 57.4453 20.2284 59.6464C19.4023 61.854 18.4056 63.866 17.2473 65.6855C16.0845 67.5116 14.7421 68.9236 13.2246 69.9247C12.4928 70.3486 11.7072 70.6095 10.8721 70.7073C10.046 70.8018 9.20647 70.7627 8.35794 70.5899C7.49594 70.4236 6.85393 70.1203 6.4364 69.6768C6.02785 69.2399 5.77194 68.7182 5.66419 68.1116C5.41277 66.4747 5.7046 64.6421 6.54415 62.6073C7.39268 60.5725 8.47467 58.5932 9.79461 56.6725C11.1235 54.7486 12.3986 53.1279 13.6197 51.8073C15.0429 50.1442 16.6547 48.5921 18.4505 47.1508C19.3574 46.4138 19.8692 45.5399 19.977 44.529C20.2015 42.8432 20.4304 40.2834 20.6594 36.8464C20.8973 33.4127 21.0186 29.6953 21.0186 25.6942C21.0186 21.6866 20.7851 17.9692 20.3182 14.5421C19.8603 11.1084 19.0521 8.56163 17.8938 6.89859C17.5706 6.50076 17.1755 6.11598 16.7086 5.75076C16.107 5.27468 15.4066 5.16381 14.6074 5.42468C13.7185 5.71163 12.9104 6.07359 12.1831 6.50729C10.1223 7.75946 8.40284 9.16163 7.02902 10.7073C5.66419 12.2562 4.7124 13.9942 4.17365 15.9247C3.78754 17.3855 3.81448 18.8399 4.24548 20.2812C4.53282 21.2464 5.04463 22.0682 5.7899 22.7464C6.53068 23.4182 7.54982 23.9073 8.84282 24.2203C8.92363 24.2399 8.9775 24.2464 9.00444 24.2464C9.26484 24.2986 9.50727 24.3736 9.72277 24.4682C9.93827 24.566 10.064 24.729 10.0999 24.9638C10.064 25.3649 9.53421 25.5866 8.51957 25.629C7.32085 25.6747 6.22539 25.4823 5.23319 25.0551C3.6753 24.3769 2.5125 23.5421 1.74927 22.5508C0.995024 21.5529 0.546065 20.4247 0.402399 19.1725C0.209347 17.2682 0.546065 15.4127 1.40807 13.6029C3.08268 10.2377 5.84826 7.44316 9.70481 5.21598C11.357 4.19859 13.2875 3.66055 15.5054 3.59859C18.2934 3.5725 20.3092 4.44642 21.5573 6.22033C22.6573 7.77902 23.4609 10.1203 23.9637 13.2508C24.4755 16.3747 24.7808 19.779 24.8796 23.4638C24.9874 27.1421 24.9694 30.5953 24.8257 33.8203C24.6821 37.0388 24.5025 39.5268 24.287 41.2812C24.1658 41.979 24.2017 42.3736 24.3947 42.4682C24.5968 42.566 25.0816 42.4095 25.8494 41.9986C26.5677 41.6171 27.3085 41.2225 28.0762 40.8116C28.6374 40.4986 29.2165 40.1953 29.8181 39.8986C30.2357 39.6377 30.7924 39.3703 31.4883 39.0899C32.1931 38.8127 32.8262 38.6921 33.3919 38.7247ZM18.3966 52.916C18.6211 51.7942 18.5852 51.2986 18.2889 51.429C17.9881 51.5595 17.5257 52.0095 16.9061 52.7855C16.1743 53.5486 15.2899 54.7192 14.2483 56.2942C13.2067 57.866 12.2459 59.5682 11.3749 61.3942C10.7868 62.7508 10.3064 64.0095 9.93827 65.1768C9.57911 66.341 9.38157 67.2768 9.34565 67.9812C9.31871 68.6921 9.51176 69.0182 9.92031 68.9595C10.3378 68.8975 11.0158 68.3138 11.9496 67.2116C13.6018 65.2095 14.9531 62.8975 16.0082 60.2725C17.0588 57.654 17.8579 55.2019 18.3966 52.916Z" fill="#E3AE42"/>
<path d="M50.1909 39.116C50.5232 38.9171 50.7746 38.8486 50.9452 38.9073C51.1113 38.9693 51.2235 39.0899 51.2864 39.2725C51.3582 39.4551 51.3941 39.6345 51.3941 39.8073C51.3672 40.1399 51.2774 40.4562 51.1248 40.7595C50.9676 41.0562 50.8599 41.2519 50.8015 41.3464C50.7656 41.3725 50.7476 41.3856 50.7476 41.3856C50.2897 42.2203 49.5714 43.0519 48.5926 43.8769C47.6094 44.6953 46.4556 45.3573 45.1267 45.8595C43.8067 46.3551 42.406 46.5736 40.9244 46.5116C38.8278 46.3388 37.1577 45.7551 35.914 44.7638C34.6794 43.766 33.7456 42.5725 33.1125 41.1899C32.4885 39.8073 32.0799 38.4475 31.8734 37.1073C31.3122 33.7779 31.1461 30.429 31.3706 27.0638C31.42 26.2486 31.4559 25.4301 31.4783 24.6116C31.4783 24.3247 31.4783 24.0377 31.4783 23.7508C31.4783 23.2225 31.1371 22.9551 30.4547 22.9551C29.7139 22.9551 28.9821 22.9421 28.2638 22.916C27.4647 22.916 26.6475 22.916 25.8215 22.916C25.7137 22.916 25.6015 22.916 25.4803 22.916C24.9056 22.9616 24.3758 22.8899 23.882 22.7073C23.6575 22.629 23.4689 22.5247 23.3253 22.3943C23.1726 22.2638 23.0918 22.1008 23.0918 21.8986C23.1187 21.716 23.2265 21.5725 23.415 21.4682C23.5946 21.3573 23.8191 21.2986 24.0795 21.2986C25.0493 21.2725 26.0145 21.2595 26.9708 21.2595C27.5589 21.2595 28.1381 21.2595 28.7128 21.2595C29.467 21.2595 30.2302 21.2334 30.9935 21.1812C31.4155 21.1649 31.6759 20.9856 31.7836 20.6464C31.8465 20.2388 31.9004 19.8345 31.9453 19.4334C32.0665 18.1127 32.1922 16.7921 32.3224 15.4682C32.4301 14.5486 32.5244 13.6421 32.6097 12.7551C32.6097 12.7225 32.6097 12.6964 32.6097 12.6769C32.6097 12.4877 32.6322 12.3051 32.6815 12.129C32.933 11.366 33.6378 11.004 34.8006 11.0464C35.7928 11.1084 36.345 11.5095 36.4528 12.2464C36.4887 12.7258 36.4887 13.2182 36.4528 13.7203C36.4528 13.9225 36.4528 14.1247 36.4528 14.3334C36.4528 14.3334 36.4348 14.3334 36.3989 14.3334C36.363 14.891 36.3271 15.4486 36.2912 16.0029C36.1565 17.2486 36.0622 18.5073 36.0038 19.7856C35.941 20.4573 36.0263 20.8779 36.2553 21.0508C36.4797 21.2171 37.0858 21.2856 38.069 21.2595C39.9367 21.2856 41.7954 21.2986 43.6541 21.2986C44.983 21.2986 46.3029 21.3084 47.6229 21.3247C47.7531 21.3247 47.8833 21.3247 48.018 21.3247C48.3412 21.3084 48.651 21.3214 48.9518 21.3638C49.2481 21.3997 49.5534 21.4779 49.8677 21.5986C49.9485 21.6606 50.0338 21.7258 50.1191 21.7943C50.1999 21.866 50.2672 21.9606 50.3166 22.0812C50.3166 22.2051 50.2628 22.3029 50.155 22.3812C50.0473 22.4595 49.9485 22.5214 49.8677 22.5638C49.2571 22.7986 48.6196 22.8964 47.9641 22.8508C47.8653 22.8508 47.7531 22.8508 47.6229 22.8508C45.634 22.8508 43.6631 22.8638 41.7146 22.8899C40.6102 22.9095 39.5057 22.916 38.3923 22.916C38.3205 22.916 38.2531 22.916 38.1948 22.916C37.6919 22.916 37.1756 22.929 36.6503 22.9551C36.1116 23.0073 35.7973 23.2258 35.7165 23.6073C35.6312 23.8258 35.5908 24.0377 35.5908 24.2464C35.4696 26.3693 35.4157 28.4953 35.4292 30.6247C35.4516 32.7475 35.6447 34.8573 36.0038 36.9508C36.3002 38.6399 36.9107 40.2508 37.8356 41.7899C38.325 42.6345 38.931 43.2964 39.6494 43.7725C40.3677 44.2519 41.1669 44.4573 42.0558 44.3856C43.708 44.1866 44.9875 43.7562 45.8989 43.0943C46.8058 42.4356 47.578 41.7214 48.2155 40.9551C48.8126 40.2084 49.4726 39.5953 50.1909 39.116Z" fill="#E3AE42"/>
<path d="M72.616 39.3899C72.6744 39.4681 72.7058 39.5464 72.7058 39.6247C72.6699 39.8334 72.5352 39.9997 72.3107 40.1203C72.0459 40.2964 71.7765 40.4529 71.5026 40.5899C71.2512 40.7399 70.9863 40.8834 70.7125 41.0203C69.6933 41.6725 68.6697 42.3214 67.6416 42.9638C65.9894 44.0073 64.3372 45.0442 62.6851 46.0681C62.2406 46.3388 61.9578 46.6127 61.841 46.8899C61.7333 47.1605 61.8096 47.4834 62.0745 47.8681C62.6132 48.6507 62.9365 49.4529 63.0442 50.2812C63.161 51.116 63.17 51.9507 63.0622 52.7855C62.7255 54.9149 61.5896 56.7181 59.6501 58.1986C57.7196 59.6855 55.2862 60.5855 52.3411 60.8986C51.1783 61.0192 50.0604 60.9312 48.9829 60.6377C47.0793 60.1584 46.2667 59.1899 46.5405 57.729C46.7695 56.6855 47.2678 55.7105 48.0311 54.8073C49.0457 53.4573 50.24 52.1986 51.6048 51.0247C51.7933 50.8747 51.9729 50.7149 52.1435 50.542C53.3737 49.541 54.5859 48.5334 55.7711 47.516C56.274 47.0138 56.1033 46.6649 55.2683 46.4725C54.2132 46.2834 53.1716 46.3029 52.1435 46.5377C51.4117 46.7399 50.653 46.7986 49.8628 46.7203C49.562 46.704 49.2971 46.642 49.0727 46.5377C48.8437 46.4268 48.6955 46.2475 48.6237 46.0029C48.5653 45.804 48.6147 45.6377 48.7674 45.5073C48.911 45.3768 49.0771 45.266 49.2702 45.1681C50.6216 44.4834 51.8607 43.7073 52.9876 42.8464C54.1234 41.9855 55.1875 41.0953 56.1842 40.1725C56.3727 39.9736 56.6556 39.6344 57.0282 39.1551C57.4098 38.6692 57.7465 38.1475 58.0339 37.5899C58.3212 37.0257 58.402 36.5431 58.2853 36.142C58.1641 35.7442 57.7106 35.5355 56.9205 35.516C55.816 35.5616 54.8193 35.8486 53.9214 36.3768C53.0325 36.9084 52.4398 37.5703 52.1435 38.3594C51.7844 39.491 50.9224 39.866 49.5575 39.4812C48.6372 39.2203 48.2421 38.7312 48.3723 38.0073C48.5429 37.3029 48.9514 36.6866 49.6114 36.1551C50.9628 35.1214 52.4578 34.4399 54.101 34.1073C55.7397 33.7681 57.4861 33.7486 59.3448 34.042C60.4089 34.1823 61.1631 34.4986 61.6076 34.9942C62.0476 35.4834 62.2406 36.1355 62.1822 36.9507C62.1104 37.9355 61.6974 38.8486 60.9431 39.6899C59.9734 40.7953 58.86 41.8388 57.6029 42.8203C56.4895 43.7594 56.0764 44.3953 56.3637 44.7247C56.6601 45.0573 57.2886 45.142 58.2494 44.9855C59.2191 44.8225 60.144 44.4866 61.0329 43.9812C61.199 43.8866 61.3472 43.792 61.4819 43.6942C63.9332 42.2268 66.4473 40.8312 69.0244 39.5073C69.4554 39.3181 69.8864 39.1551 70.3174 39.0247C70.7484 38.8877 71.2063 38.8551 71.7002 38.9334C72.1401 38.979 72.4454 39.129 72.616 39.3899ZM51.0481 58.8768C51.6811 59.1899 52.5027 59.141 53.5084 58.7334C54.523 58.3225 55.4928 57.6507 56.4176 56.7116C57.338 55.779 58.0159 54.6834 58.4469 53.4247C58.8779 52.1627 58.8285 50.8192 58.3032 49.3942C58.0024 49.6094 57.3559 50.141 56.3637 50.9855C55.3671 51.8268 54.3345 52.7888 53.257 53.8681C52.1795 54.954 51.3758 55.9616 50.8505 56.8942C50.3208 57.8334 50.3881 58.492 51.0481 58.8768Z" fill="#E3AE42"/>
<path d="M74.5336 40.8116C74.4977 40.8116 74.4663 40.8116 74.4439 40.8116C74.4439 40.8116 74.4528 40.8116 74.4798 40.8116C74.4798 40.8116 74.4977 40.8116 74.5336 40.8116ZM90.319 39.1551C90.4851 39.0768 90.75 38.9855 91.1092 38.8812C91.4773 38.7768 91.8275 38.7181 92.1508 38.6986C92.483 38.6823 92.7165 38.7736 92.8511 38.9725C92.9589 39.1127 92.9813 39.2464 92.923 39.3768C92.8736 39.5073 92.7838 39.6246 92.6536 39.729C91.8275 40.3812 90.539 41.0464 88.7926 41.7246C87.0551 42.3964 85.2548 42.9866 83.3871 43.4986C81.5284 44.0138 79.984 44.3431 78.7538 44.4899C77.3396 44.6823 75.903 44.7246 74.4439 44.6203C72.648 44.4638 71.3101 43.929 70.4391 43.0159C69.5682 42.1029 69.2135 41.079 69.3796 39.9377C69.6445 38.6692 70.4391 37.6616 71.7681 36.9116C73.106 36.1649 74.6459 35.8909 76.3834 36.0899C77.4339 36.1877 78.3857 36.4649 79.2387 36.9246C80.1726 37.4725 80.5901 38.1051 80.4958 38.8159C80.397 39.5203 79.8179 40.0649 78.7538 40.4464C78.1882 40.6486 77.5686 40.7725 76.8862 40.8246C76.2127 40.8703 75.4316 40.8638 74.5336 40.8116C74.5336 40.8116 74.5067 40.8116 74.4618 40.8116C74.4124 40.8116 74.3406 40.8116 74.2463 40.8116C74.1475 40.8116 74.0488 40.8116 73.941 40.8116C73.6627 40.8116 73.4831 40.8703 73.4023 40.9812C73.3304 41.0855 73.3304 41.2225 73.4023 41.3855C73.8916 42.2823 74.8614 42.7551 76.3115 42.8073C77.7706 42.8529 79.4228 42.6507 81.268 42.2073C83.1087 41.7573 84.8597 41.2355 86.5119 40.642C88.164 40.0518 89.4301 39.5562 90.319 39.1551ZM74.4798 38.0986C74.2508 38.2225 74.0937 38.3594 74.0129 38.5159C73.941 38.6725 73.8916 38.8094 73.8692 38.9203C73.8557 39.0344 73.8782 39.0996 73.941 39.1159C73.9994 39.142 74.1835 39.1746 74.4977 39.2073C74.821 39.2431 75.1712 39.2464 75.5573 39.2203C75.9389 39.1942 76.2487 39.1388 76.4911 39.0507C76.7425 38.9562 76.8323 38.7866 76.7605 38.542C76.5899 38.2029 76.2666 37.9909 75.7907 37.9029C75.3238 37.8181 74.8838 37.8833 74.4798 38.0986Z" fill="#E3AE42"/>
<path d="M109.737 39.3247C110.392 38.8747 110.945 38.7867 111.389 39.0639C111.843 39.3443 111.843 39.866 111.389 40.6291C110.347 42.09 109.019 43.4595 107.402 44.7378C105.786 46.016 103.945 46.9552 101.889 47.5552C101 47.7639 100.098 47.8682 99.1774 47.8682C98.266 47.8682 97.3681 47.7834 96.4837 47.6204C95.6082 47.4802 94.8854 47.2128 94.3107 46.8117C93.736 46.4139 93.2332 45.9508 92.8022 45.4291C91.5451 43.691 90.7415 41.1965 90.3958 37.9421C90.0501 34.6813 90.0187 31.1269 90.306 27.2726C90.5799 23.4117 91.0153 19.7171 91.617 16.1856C92.2141 12.6476 92.8247 9.72257 93.4487 7.40735C93.745 6.45191 94.194 5.54213 94.7956 4.68126C95.4511 3.778 96.4747 3.36387 97.8665 3.44213C99.1595 3.44213 100.057 3.88561 100.56 4.77257C101.085 5.91387 101.386 7.07474 101.458 8.25517C101.71 11.04 101.602 13.8117 101.135 16.5769C100.677 19.2476 100.102 21.7421 99.4109 24.0639C98.715 26.3856 97.9922 28.6617 97.2379 30.8856C96.2682 33.6084 95.3568 36.4617 94.5082 39.4421C94.5307 39.7487 94.5711 40.0226 94.634 40.2639C94.7417 41.1084 94.8943 41.8389 95.1009 42.4552C95.3164 43.065 95.7743 43.8182 96.4837 44.7117C97.1526 45.5465 97.9922 45.99 98.9978 46.0421C100.003 46.0943 101.032 45.8921 102.087 45.4291C103.151 44.9693 104.125 44.4215 105.014 43.7856C105.912 43.1432 106.603 42.5595 107.097 42.0378C107.227 41.9008 107.479 41.6334 107.851 41.2421C108.219 40.8508 108.588 40.4726 108.947 40.1073C109.306 39.7356 109.566 39.4747 109.737 39.3247ZM94.0593 30.6378C94.4768 29.8487 94.9033 28.5704 95.3343 26.803C95.7743 25.0389 96.1649 23.0726 96.5016 20.9073C96.8473 18.7421 97.1122 16.6813 97.2918 14.7247C97.4803 12.7617 97.5477 11.19 97.4893 10.016C97.4399 8.84213 97.2379 8.34648 96.8787 8.52909C96.349 10.1921 96.0033 11.7313 95.8372 13.1465C95.7294 13.8965 95.5768 14.9987 95.3882 16.4595C94.9931 19.0095 94.625 21.7226 94.2927 24.5987C93.9695 27.4682 93.8887 29.4834 94.0593 30.6378Z" fill="#E3AE42"/>
<path d="M130.091 38.9725C130.258 38.9921 130.37 39.0247 130.433 39.0769C130.491 39.1291 130.558 39.2269 130.63 39.3638C130.689 39.5041 130.621 39.6736 130.433 39.8725C130.24 40.0747 130.06 40.2312 129.894 40.3421C128.659 41.1867 127.218 41.6921 125.566 41.8552C124.605 41.953 123.653 41.9791 122.711 41.9334C121.763 41.8812 120.829 41.7117 119.909 41.4247C119.249 41.1899 118.634 41.2649 118.059 41.6465C116.874 42.4291 115.635 43.1823 114.342 43.903C113.682 44.2682 112.986 44.5747 112.259 44.816C111.527 45.0508 110.732 45.1878 109.87 45.2204C107.356 45.1878 106.364 44.2943 106.889 42.5465C106.925 42.4682 106.97 42.4095 107.015 42.3638C107.733 40.9486 108.685 39.6704 109.87 38.5291C111.056 37.3812 112.564 36.4258 114.396 35.6595C115.59 35.1475 116.883 34.9519 118.275 35.0725C118.634 35.1247 118.975 35.2225 119.298 35.3595C119.703 35.5095 119.873 35.7378 119.801 36.0508C119.774 36.1486 119.712 36.2334 119.604 36.3117C119.505 36.3834 119.406 36.4486 119.298 36.5073C119.236 36.5693 119.159 36.6117 119.065 36.6378C118.966 36.6573 118.867 36.6638 118.76 36.6638C117.763 36.6834 116.91 36.8921 116.192 37.2899C115.482 37.691 114.836 38.1443 114.252 38.6465C113.592 39.178 112.977 39.7682 112.402 40.4204C111.837 41.066 111.379 41.8356 111.02 42.7291C112.349 42.1747 113.39 41.6204 114.144 41.0725C114.311 40.9519 114.472 40.8443 114.629 40.7465C114.773 40.6421 114.908 40.5508 115.042 40.4725C115.698 40.0291 116.394 39.6378 117.126 39.2986C117.952 38.9595 118.764 38.7899 119.568 38.7899C120.38 38.7899 121.175 39.0312 121.956 39.5073C123.007 40.1856 124.026 40.453 125.009 40.303C126.001 40.1562 126.931 39.9052 127.793 39.5465C128.664 39.1649 129.431 38.9725 130.091 38.9725Z" fill="#E3AE42"/>
<path d="M243.312 38.7899C243.572 38.8095 243.815 38.878 244.03 38.9986C244.255 39.1225 244.354 39.3638 244.318 39.7291C244.282 40.0878 244.012 40.603 243.51 41.2812C243.317 41.6465 243.083 41.9954 242.809 42.3247C242.809 42.3508 242.796 42.3736 242.773 42.3899C239.37 47.0856 236.192 51.8595 233.237 56.7117C231.751 59.1443 229.951 61.4465 227.832 63.6117C227.194 64.228 226.53 64.828 225.839 65.4117C225.143 65.9334 224.317 66.266 223.36 66.416C220.869 66.8758 219.266 66.2008 218.547 64.3943C218.305 63.716 218.17 63.0312 218.134 62.3465C218.036 60.3019 218.139 58.2704 218.44 56.2552C219.23 49.9421 220.258 43.6388 221.529 37.3421C221.564 37.2997 221.582 37.2508 221.582 37.1986C221.798 36.4356 221.825 35.6823 221.672 34.9421C221.407 34.8638 221.192 34.8508 221.026 34.903C220.869 34.9486 220.707 35.0171 220.541 35.1117C219.329 35.8356 218.116 36.5562 216.895 37.2769C213.78 39.103 210.655 40.9225 207.521 42.7291C206.488 43.303 205.945 44.0725 205.887 45.0378C205.55 47.3856 205.083 49.9845 204.486 52.8378C203.885 55.6878 203.023 58.4725 201.9 61.1856C200.787 63.9052 199.265 66.2497 197.339 68.216C196.342 69.2497 195.116 70.1269 193.657 70.8508C192.768 71.2747 191.812 71.5878 190.784 71.7899C188.723 72.1291 186.959 71.9725 185.486 71.3204C184.023 70.6682 183.026 69.5986 182.487 68.1117C181.814 65.953 181.904 63.7975 182.757 61.6421C183.605 59.4834 184.921 57.3932 186.707 55.3682C188.49 53.3497 190.465 51.4747 192.634 49.7465C194.798 48.0149 196.899 46.5084 198.937 45.2204C199.224 45.0215 199.53 44.8225 199.853 44.6204C200.234 44.4215 200.598 44.1997 200.948 43.9552C201.294 43.7138 201.563 43.4432 201.756 43.1465C201.981 42.791 202.125 42.3997 202.187 41.9725C202.259 41.5388 202.313 41.0986 202.349 40.6552C202.349 40.4725 202.367 40.2834 202.403 40.0812C202.497 38.6399 202.592 36.716 202.69 34.316C202.785 31.9095 202.744 29.278 202.565 26.4247C202.385 23.5649 201.954 20.7345 201.272 17.9334C200.598 15.1258 199.548 12.5921 198.111 10.3291C196.674 8.06928 194.753 6.34754 192.346 5.16385C189.949 3.97363 186.932 3.56928 183.295 3.95081C173.526 5.03994 165.032 8.05624 157.812 13.003C155.105 14.8291 153.022 16.9812 151.563 19.4595C150.903 20.591 150.458 21.7356 150.234 22.8899C150.018 24.0378 150.207 25.2052 150.809 26.3856C151.671 28.091 152.842 29.6008 154.328 30.9117C155.824 32.216 157.727 33.2693 160.039 34.0682C160.264 34.1399 160.515 34.2312 160.793 34.3421C160.96 34.4465 161.031 34.5965 161.009 34.7856C160.996 34.978 160.87 35.1215 160.632 35.216C160.605 35.2421 160.578 35.2682 160.542 35.2943C160.349 35.366 160.134 35.4247 159.896 35.4769C158.805 35.6432 157.781 35.5225 156.825 35.1117C154.477 34.078 152.465 32.8519 150.791 31.4334C149.125 30.0084 147.855 28.3356 146.984 26.4117C146.588 25.4823 146.413 24.5302 146.463 23.5552C146.521 22.5736 146.732 21.6052 147.091 20.6465C147.639 19.2378 148.429 17.9334 149.462 16.7334C150.503 15.5269 151.68 14.3823 153 13.303C155.406 11.3041 158.172 9.58233 161.296 8.13776C164.048 6.88559 166.886 5.79972 169.809 4.87689C172.727 3.94754 175.78 3.23015 178.967 2.72472C182.272 2.17037 185.616 2.0595 189.006 2.39863C192.643 2.83559 195.601 3.89863 197.877 5.59428C200.163 7.28994 201.936 9.38341 203.193 11.8682C204.45 14.3562 205.335 16.9943 205.851 19.7856C206.363 22.5769 206.65 25.2899 206.713 27.9247C206.785 30.5595 206.771 32.8812 206.677 34.8899C206.677 35.4475 206.659 36.0051 206.623 36.5595C206.587 37.466 206.551 38.3791 206.515 39.2986C206.515 39.3182 206.515 39.3378 206.515 39.3638C206.515 39.4878 206.533 39.6084 206.569 39.7291C206.605 39.8432 206.735 39.9117 206.964 39.9378C207.108 39.9736 207.238 39.9638 207.359 39.9117C207.49 39.8595 207.611 39.8008 207.719 39.7291C211.247 37.7041 214.776 35.6595 218.296 33.5986C218.965 33.2171 219.607 32.8225 220.218 32.4117C220.599 32.1704 220.981 31.9388 221.367 31.7204C222.229 31.2182 222.714 30.5562 222.822 29.7378C223.347 25.078 223.939 20.4215 224.599 15.7682C225.125 12.0215 225.686 8.28776 226.288 4.56385C226.431 3.80081 226.683 3.05733 227.042 2.33341C227.76 1.01276 228.918 0.213848 230.526 -0.0665863C232.142 -0.34376 233.709 -0.0339772 235.231 0.859501C235.864 1.28667 236.403 1.76602 236.847 2.29428C238.715 4.4595 239.815 6.81711 240.151 9.36385C240.677 13.5736 239.599 17.5519 236.919 21.2986C234.822 24.2302 232.218 26.8943 229.107 29.2943C229.08 29.3302 229.071 29.3465 229.071 29.3465C228.434 29.8519 227.787 30.3443 227.132 30.8204C226.566 31.2312 226.252 31.7204 226.18 32.2943C225.821 34.4171 225.461 36.5204 225.102 38.6073C224.465 41.9725 223.886 45.3378 223.36 48.703C223.001 51.1095 222.669 53.516 222.373 55.916C222.229 57.0443 222.09 58.1791 221.96 59.3204C221.708 60.8595 221.807 62.3791 222.265 63.8856C222.337 64.0323 222.467 64.1204 222.66 64.1465C222.849 64.1725 223.01 64.1367 223.145 64.0421C223.549 63.7193 223.922 63.3801 224.258 63.0247C226.198 61.0486 227.868 58.9454 229.269 56.7117C230.894 54.1812 232.501 51.6443 234.081 49.1073C235.433 47.0823 236.905 45.0965 238.499 43.1465C239.002 42.5041 239.514 41.8552 240.044 41.203C240.232 40.9421 240.502 40.616 240.852 40.2247C241.211 39.8269 241.606 39.4812 242.037 39.1943C242.468 38.9008 242.89 38.7638 243.312 38.7899ZM227.239 25.0812C227.239 25.1595 227.212 25.2443 227.167 25.3291C227.141 25.5312 227.118 25.7562 227.096 26.0073C227.082 26.2617 227.087 26.4769 227.114 26.6595C227.15 26.8356 227.248 26.9204 227.419 26.9204C227.585 26.9204 227.836 26.7769 228.173 26.4899C230.818 24.1519 232.937 21.5921 234.53 18.8073C235.487 17.0595 236.111 15.2921 236.398 13.4986C236.694 11.7084 236.6 9.86928 236.111 7.98124C235.581 5.96602 234.53 4.11385 232.95 2.42472C232.95 2.42472 232.95 2.4182 232.95 2.39863C232.779 2.23559 232.595 2.08559 232.393 1.95515C232.187 1.82472 231.926 1.76928 231.603 1.78559C231.397 1.83124 231.231 1.92581 231.1 2.07254C230.966 2.22254 230.871 2.37907 230.813 2.54211C230.813 2.54211 230.813 2.55515 230.813 2.58124C230.247 3.78124 229.902 5.00733 229.771 6.2595C229.601 7.34863 229.453 8.4182 229.322 9.4682C228.927 12.0704 228.541 14.6693 228.173 17.2682C227.886 19.4791 227.621 21.6997 227.383 23.9334C227.32 24.3182 227.275 24.6997 227.239 25.0812ZM201.415 47.8421C201.415 47.7965 201.415 47.7638 201.415 47.7378C201.451 47.6138 201.456 47.4965 201.433 47.3856C201.42 47.2812 201.33 47.1899 201.164 47.1117C200.957 47.0693 200.787 47.0856 200.643 47.1638C200.499 47.2323 200.374 47.3073 200.266 47.3856C200.239 47.4019 200.212 47.4247 200.176 47.4508C198.964 48.2856 197.577 49.3486 196.01 50.6465C194.438 51.9508 192.894 53.3888 191.377 54.9638C189.855 56.5356 188.562 58.166 187.498 59.8552C186.442 61.541 185.832 63.1878 185.666 64.7986C185.495 66.4062 185.976 67.8932 187.102 69.2595C187.929 70.3193 189.033 70.5247 190.425 69.8725C192.373 68.966 193.998 67.5965 195.291 65.7638C196.593 63.9378 197.648 61.9095 198.452 59.6856C199.265 57.4584 199.898 55.2899 200.356 53.1769C200.823 51.0638 201.173 49.2834 201.415 47.8421Z" fill="#E3AE42"/>
<path d="M246.291 40.8116C246.255 40.8116 246.224 40.8116 246.201 40.8116C246.201 40.8116 246.21 40.8116 246.237 40.8116C246.237 40.8116 246.255 40.8116 246.291 40.8116ZM262.076 39.1551C262.242 39.0768 262.507 38.9855 262.867 38.8812C263.235 38.7768 263.585 38.7181 263.908 38.6986C264.24 38.6823 264.474 38.7736 264.608 38.9725C264.716 39.1127 264.739 39.2464 264.68 39.3768C264.631 39.5073 264.541 39.6246 264.411 39.729C263.585 40.3812 262.296 41.0464 260.55 41.7246C258.812 42.3964 257.012 42.9866 255.144 43.4986C253.286 44.0138 251.741 44.3431 250.511 44.4899C249.097 44.6823 247.66 44.7246 246.201 44.6203C244.405 44.4638 243.067 43.929 242.196 43.0159C241.325 42.1029 240.971 41.079 241.137 39.9377C241.402 38.6692 242.196 37.6616 243.525 36.9116C244.863 36.1649 246.403 35.8909 248.141 36.0899C249.191 36.1877 250.143 36.4649 250.996 36.9246C251.93 37.4725 252.347 38.1051 252.253 38.8159C252.154 39.5203 251.575 40.0649 250.511 40.4464C249.945 40.6486 249.326 40.7725 248.644 40.8246C247.97 40.8703 247.189 40.8638 246.291 40.8116C246.291 40.8116 246.264 40.8116 246.219 40.8116C246.17 40.8116 246.098 40.8116 246.004 40.8116C245.905 40.8116 245.806 40.8116 245.698 40.8116C245.42 40.8116 245.24 40.8703 245.16 40.9812C245.088 41.0855 245.088 41.2225 245.16 41.3855C245.649 42.2823 246.619 42.7551 248.069 42.8073C249.528 42.8529 251.18 42.6507 253.025 42.2073C254.866 41.7573 256.617 41.2355 258.269 40.642C259.921 40.0518 261.187 39.5562 262.076 39.1551ZM246.237 38.0986C246.008 38.2225 245.851 38.3594 245.77 38.5159C245.698 38.6725 245.649 38.8094 245.627 38.9203C245.613 39.0344 245.635 39.0996 245.698 39.1159C245.757 39.142 245.941 39.1746 246.255 39.2073C246.578 39.2431 246.928 39.2464 247.315 39.2203C247.696 39.1942 248.006 39.1388 248.248 39.0507C248.5 38.9562 248.59 38.7866 248.518 38.542C248.347 38.2029 248.024 37.9909 247.548 37.9029C247.081 37.8181 246.641 37.8833 246.237 38.0986Z" fill="#E3AE42"/>
<path d="M282.392 39.4812C282.954 39.0638 283.443 38.9008 283.865 38.9855C284.296 39.0736 284.565 39.3051 284.673 39.6768C284.781 40.0518 284.628 40.466 284.224 40.916C283.398 41.8029 282.231 42.7616 280.722 43.7855C279.223 44.8029 277.602 45.6964 275.856 46.4595C274.118 47.216 272.479 47.6236 270.935 47.6855C267.783 47.8062 266.311 46.7171 266.517 44.4116C266.54 44.1084 266.616 43.7008 266.751 43.1855C266.894 42.6834 267.002 42.1942 267.074 41.7247C267.155 41.2551 267.119 40.9388 266.966 40.7725C266.751 40.6355 266.508 40.5638 266.248 40.5638C265.983 40.5638 265.7 40.5866 265.404 40.629C265.067 40.6812 264.757 40.691 264.47 40.6551C262.935 40.5345 262.144 39.9605 262.082 38.9334C262.059 37.5181 262.423 36.1551 263.177 34.8508C263.415 34.4529 263.864 34.1855 264.524 34.0551C265.179 33.9247 265.79 33.9768 266.356 34.2116C266.715 34.3779 266.876 34.6029 266.841 34.8899C266.778 35.2812 266.683 35.6692 266.553 36.0508C266.49 36.2171 266.436 36.3866 266.392 36.5595C266.104 37.5703 266.104 38.0921 266.392 38.1247C266.688 38.1605 267.334 37.8899 268.331 37.316C269.072 36.9345 269.884 36.7747 270.773 36.8334C271.959 36.9116 272.435 37.3942 272.21 38.2812C272.017 38.8812 271.819 39.4942 271.617 40.1203C271.159 41.3986 270.814 42.6866 270.576 43.9812C270.477 44.8681 270.693 45.3866 271.222 45.5334C271.748 45.6834 272.448 45.5953 273.323 45.2725C274.208 44.9431 275.137 44.5029 276.107 43.9551C277.077 43.4008 277.93 42.8562 278.675 42.3247C279.429 41.7964 279.937 41.4084 280.202 41.1638C280.345 41.0431 280.552 40.8768 280.83 40.6681C281.104 40.4529 281.391 40.2345 281.692 40.016C282.024 39.7812 282.258 39.6051 282.392 39.4812Z" fill="#E3AE42"/>
<path d="M311.604 39.5073C311.604 39.5073 311.622 39.5073 311.658 39.5073C311.81 39.5334 311.972 39.579 312.142 39.6377C312.309 39.6997 312.416 39.8171 312.466 39.9899C312.546 40.2964 312.43 40.5344 312.106 40.7073C310.751 41.3953 309.296 41.9334 307.743 42.3247C306.342 42.6573 304.928 42.866 303.504 42.9507C302.09 43.0388 300.654 43.0355 299.194 42.9377C297.313 42.8007 295.791 42.1486 294.633 40.9812C294.274 40.6257 293.901 40.2638 293.52 39.8986C293.16 39.5431 292.783 39.1747 292.388 38.7899C292.065 38.4768 291.652 38.4377 291.149 38.6725C290.547 38.9953 290.009 39.3573 289.533 39.7551C289.052 40.1464 288.599 40.5573 288.168 40.9812C288.141 41.0431 288.105 41.0953 288.06 41.1377C287.89 41.2779 287.724 41.4344 287.557 41.6073C287.364 41.8681 287.144 42.1094 286.893 42.3247C286.449 42.6899 285.878 42.9247 285.187 43.029C284.505 43.1334 283.845 43.091 283.212 42.8986C282.745 42.7257 282.444 42.4779 282.314 42.1551C281.883 40.9225 281.622 39.6768 281.523 38.4247C281.523 37.7464 281.945 37.3518 282.798 37.2377C283.791 37.0747 284.509 37.2997 284.953 37.916C285.012 38.0203 285.052 38.1442 285.079 38.2812C285.124 38.4214 285.191 38.5616 285.277 38.6986C285.358 38.8388 285.515 38.9529 285.744 39.0377C286.004 38.8747 286.251 38.7214 286.48 38.5812C287.005 38.2421 287.522 37.9127 288.024 37.5899C288.621 37.2344 289.25 36.9834 289.91 36.8334C290.579 36.6768 291.284 36.5986 292.029 36.5986C293.789 36.5986 295.181 37.1007 296.213 38.0986C296.402 38.3171 296.608 38.5257 296.824 38.7247C297.277 39.2301 297.749 39.7127 298.243 40.1725C299.042 40.9127 300.101 41.2942 301.421 41.3203C302.773 41.366 304.07 41.2747 305.318 41.0464C306.562 40.8214 307.761 40.479 308.91 40.016C308.955 39.9997 309.009 39.9736 309.072 39.9377C309.467 39.7747 309.866 39.6442 310.275 39.5464C310.692 39.4421 311.137 39.429 311.604 39.5073Z" fill="#E3AE42"/>
<path d="M330.332 38.9725C330.498 38.9921 330.611 39.0247 330.673 39.0769C330.732 39.1291 330.799 39.2269 330.871 39.3639C330.929 39.5041 330.862 39.6736 330.673 39.8725C330.48 40.0747 330.301 40.2312 330.135 40.3421C328.9 41.1867 327.459 41.6921 325.807 41.8552C324.846 41.953 323.894 41.9791 322.951 41.9334C322.004 41.8812 321.07 41.7117 320.15 41.4247C319.49 41.1899 318.875 41.2649 318.3 41.6465C317.115 42.4291 315.876 43.1823 314.583 43.903C313.923 44.2682 313.227 44.5747 312.5 44.816C311.768 45.0508 310.973 45.1878 310.111 45.2204C307.597 45.1878 306.605 44.2943 307.13 42.5465C307.166 42.4682 307.211 42.4095 307.256 42.3639C307.974 40.9486 308.926 39.6704 310.111 38.5291C311.296 37.3812 312.805 36.4258 314.637 35.6595C315.831 35.1475 317.124 34.9519 318.516 35.0725C318.875 35.1247 319.216 35.2225 319.539 35.3595C319.943 35.5095 320.114 35.7378 320.042 36.0508C320.015 36.1486 319.952 36.2334 319.845 36.3117C319.746 36.3834 319.647 36.4486 319.539 36.5073C319.476 36.5693 319.4 36.6117 319.306 36.6378C319.207 36.6573 319.108 36.6639 319 36.6639C318.004 36.6834 317.151 36.8921 316.432 37.2899C315.723 37.691 315.077 38.1443 314.493 38.6465C313.833 39.178 313.218 39.7682 312.643 40.4204C312.078 41.066 311.62 41.8356 311.26 42.7291C312.589 42.1747 313.631 41.6204 314.385 41.0725C314.551 40.9519 314.713 40.8443 314.87 40.7465C315.014 40.6421 315.148 40.5508 315.283 40.4725C315.939 40.0291 316.634 39.6378 317.366 39.2986C318.192 38.9595 319.005 38.7899 319.809 38.7899C320.621 38.7899 321.416 39.0312 322.197 39.5073C323.248 40.1856 324.267 40.453 325.25 40.303C326.242 40.1562 327.171 39.9052 328.034 39.5465C328.904 39.1649 329.672 38.9725 330.332 38.9725ZM319.665 28.5769C319.831 28.3943 320.051 28.2769 320.329 28.2247C320.603 28.1725 320.891 28.1595 321.191 28.1856C321.25 28.1856 321.299 28.1856 321.335 28.1856C321.465 28.2052 321.595 28.2117 321.73 28.2117C322.422 28.3356 322.812 28.5052 322.897 28.7204C322.978 28.9389 322.897 29.1704 322.646 29.4117C322.404 29.6562 322.13 29.8747 321.82 30.0639C321.138 30.6117 320.46 31.2475 319.791 31.9682C319.202 32.5682 318.682 33.0475 318.228 33.403C317.784 33.7519 317.447 33.7943 317.223 33.5334C316.944 33.3867 316.801 33.2171 316.792 33.0247C316.778 32.8258 316.828 32.6204 316.935 32.4117C317.124 31.7791 317.425 31.1921 317.833 30.6508C318.251 30.1128 318.713 29.578 319.216 29.0465C319.346 28.8899 319.494 28.7334 319.665 28.5769Z" fill="#E3AE42"/>
<path d="M358.572 39.5073C358.572 39.5073 358.59 39.5073 358.626 39.5073C358.778 39.5334 358.94 39.579 359.111 39.6377C359.277 39.6997 359.385 39.8171 359.434 39.9899C359.515 40.2964 359.398 40.5344 359.075 40.7073C357.719 41.3953 356.264 41.9334 354.711 42.3247C353.31 42.6573 351.896 42.866 350.473 42.9507C349.058 43.0388 347.622 43.0355 346.163 42.9377C344.282 42.8007 342.76 42.1486 341.601 40.9812C341.242 40.6257 340.869 40.2638 340.488 39.8986C340.129 39.5431 339.752 39.1747 339.356 38.7899C339.033 38.4768 338.62 38.4377 338.117 38.6725C337.516 38.9953 336.977 39.3573 336.501 39.7551C336.021 40.1464 335.567 40.5573 335.136 40.9812C335.109 41.0431 335.073 41.0953 335.029 41.1377C334.858 41.2779 334.692 41.4344 334.526 41.6073C334.333 41.8681 334.113 42.1094 333.861 42.3247C333.417 42.6899 332.847 42.9247 332.155 43.029C331.473 43.1334 330.813 43.091 330.18 42.8986C329.713 42.7257 329.412 42.4779 329.282 42.1551C328.851 40.9225 328.59 39.6768 328.492 38.4247C328.492 37.7464 328.914 37.3518 329.767 37.2377C330.759 37.0747 331.477 37.2997 331.922 37.916C331.98 38.0203 332.021 38.1442 332.047 38.2812C332.092 38.4214 332.16 38.5616 332.245 38.6986C332.326 38.8388 332.483 38.9529 332.712 39.0377C332.972 38.8747 333.219 38.7214 333.448 38.5812C333.973 38.2421 334.49 37.9127 334.993 37.5899C335.59 37.2344 336.218 36.9834 336.878 36.8334C337.547 36.6768 338.252 36.5986 338.997 36.5986C340.757 36.5986 342.149 37.1007 343.182 38.0986C343.37 38.3171 343.577 38.5257 343.792 38.7247C344.246 39.2301 344.717 39.7127 345.211 40.1725C346.01 40.9127 347.07 41.2942 348.39 41.3203C349.741 41.366 351.038 41.2747 352.286 41.0464C353.53 40.8214 354.729 40.479 355.878 40.016C355.923 39.9997 355.977 39.9736 356.04 39.9377C356.435 39.7747 356.834 39.6442 357.243 39.5464C357.661 39.4421 358.105 39.429 358.572 39.5073Z" fill="#E3AE42"/>
<path d="M390.931 38.9725C391.434 39.0507 391.667 39.266 391.631 39.6116C391.604 39.9507 391.443 40.2899 391.146 40.629C390.343 41.4899 389.319 42.2529 388.075 42.9116C386.841 43.5736 385.561 44.0399 384.232 44.3073C382.912 44.5779 381.682 44.5355 380.533 44.1768C379.384 43.8116 378.504 43.0388 377.893 41.8551C377.318 40.7953 376.986 39.7029 376.905 38.5812C376.856 38.1997 376.82 37.2442 376.798 35.7116C376.784 34.1823 376.762 32.5779 376.726 30.8986C376.699 29.2127 376.69 27.9475 376.69 27.1029C376.69 26.7214 376.69 26.516 376.69 26.4899C375.837 28.7594 374.831 31.1073 373.673 33.5333C372.51 35.9594 371.684 37.5834 371.195 38.3986C370.225 39.9051 369.147 41.379 367.962 42.8203C367.136 43.7594 366.139 44.604 364.981 45.3507C364.047 45.9507 362.934 46.3127 361.641 46.4334C360.348 46.5475 359.136 46.4268 358.013 46.0681C356.9 45.7127 356.159 45.0899 355.786 44.2029C355.418 43.1594 355.333 42.1551 355.535 41.1899C355.741 40.2181 356.303 39.2953 357.223 38.4247C358.251 37.4855 359.436 36.8725 360.779 36.5855C362.117 36.2986 363.58 36.292 365.161 36.5594C365.663 36.6475 366.157 36.7681 366.651 36.9247C366.889 36.9866 367.141 37.0551 367.405 37.1334C368.196 36.4127 369.062 34.9877 370.009 32.8551C370.952 30.7257 371.823 28.5442 372.613 26.3073C373.404 24.0736 373.951 22.4529 374.265 21.442C375.199 18.416 375.972 15.4127 376.582 12.429C377.013 10.5083 377.48 8.57465 377.983 6.62465C378.171 5.99204 378.67 5.57791 379.473 5.38552C380.273 5.19639 381.018 5.29096 381.7 5.67248C382.032 5.87465 382.203 6.1127 382.203 6.38987C382.095 9.91161 381.88 13.4529 381.557 17.0073C381.458 18.4518 381.359 19.8605 381.251 21.2333C381.058 23.9464 380.919 26.6594 380.838 29.3725C380.753 32.0855 380.793 34.8051 380.964 37.5247C380.964 37.629 380.964 37.7399 380.964 37.8507C380.964 38.3986 381.027 39.0573 381.161 39.8203C381.292 40.5768 381.566 41.2225 381.988 41.7507C382.405 42.2823 383.07 42.4616 383.981 42.2855C384.672 42.1225 385.373 41.8486 386.082 41.4638C386.8 41.0823 387.492 40.6812 388.165 40.2638C388.762 39.8823 389.297 39.566 389.764 39.3116C390.239 39.0605 390.63 38.9464 390.931 38.9725ZM362.431 43.6551C363.257 42.9768 363.975 42.2562 364.586 41.4899C365.206 40.7268 365.812 39.8725 366.4 38.9333C365.646 38.6725 364.909 38.4703 364.191 38.3203C363.482 38.1736 362.795 38.1964 362.126 38.3855C361.466 38.5779 360.842 39.0344 360.258 39.7551C359.167 41.1834 359.005 42.6638 359.773 44.2029C359.962 44.542 360.231 44.6953 360.581 44.6594C360.927 44.617 361.273 44.4834 361.623 44.2551C361.969 44.0203 362.238 43.8214 362.431 43.6551Z" fill="#E3AE42"/>
<path d="M393.921 40.8116C393.885 40.8116 393.854 40.8116 393.832 40.8116C393.832 40.8116 393.841 40.8116 393.867 40.8116C393.867 40.8116 393.885 40.8116 393.921 40.8116ZM409.707 39.1551C409.873 39.0768 410.138 38.9855 410.497 38.8812C410.865 38.7768 411.215 38.7181 411.538 38.6986C411.871 38.6823 412.104 38.7736 412.239 38.9725C412.347 39.1127 412.369 39.2464 412.311 39.3768C412.261 39.5073 412.171 39.6246 412.041 39.729C411.215 40.3812 409.927 41.0464 408.18 41.7246C406.443 42.3964 404.642 42.9866 402.775 43.4986C400.916 44.0138 399.372 44.3431 398.142 44.4899C396.727 44.6823 395.291 44.7246 393.832 44.6203C392.036 44.4638 390.698 43.929 389.827 43.0159C388.956 42.1029 388.601 41.079 388.767 39.9377C389.032 38.6692 389.827 37.6616 391.156 36.9116C392.494 36.1649 394.034 35.8909 395.771 36.0899C396.822 36.1877 397.773 36.4649 398.626 36.9246C399.56 37.4725 399.978 38.1051 399.884 38.8159C399.785 39.5203 399.206 40.0649 398.142 40.4464C397.576 40.6486 396.956 40.7725 396.274 40.8246C395.6 40.8703 394.819 40.8638 393.921 40.8116C393.921 40.8116 393.894 40.8116 393.85 40.8116C393.8 40.8116 393.728 40.8116 393.634 40.8116C393.535 40.8116 393.436 40.8116 393.329 40.8116C393.05 40.8116 392.871 40.8703 392.79 40.9812C392.718 41.0855 392.718 41.2225 392.79 41.3855C393.279 42.2823 394.249 42.7551 395.699 42.8073C397.158 42.8529 398.81 42.6507 400.656 42.2073C402.496 41.7573 404.247 41.2355 405.9 40.642C407.552 40.0518 408.818 39.5562 409.707 39.1551ZM393.867 38.0986C393.638 38.2225 393.481 38.3594 393.401 38.5159C393.329 38.6725 393.279 38.8094 393.257 38.9203C393.243 39.0344 393.266 39.0996 393.329 39.1159C393.387 39.142 393.571 39.1746 393.885 39.2073C394.209 39.2431 394.559 39.2464 394.945 39.2203C395.327 39.1942 395.636 39.1388 395.879 39.0507C396.13 38.9562 396.22 38.7866 396.148 38.542C395.978 38.2029 395.654 37.9909 395.178 37.9029C394.712 37.8181 394.272 37.8833 393.867 38.0986Z" fill="#E3AE42"/>
<path d="M433.758 39.3899C433.816 39.4681 433.848 39.5464 433.848 39.6247C433.812 39.8334 433.677 39.9997 433.453 40.1203C433.188 40.2964 432.919 40.4529 432.645 40.5899C432.393 40.7399 432.128 40.8834 431.855 41.0203C430.835 41.6725 429.812 42.3214 428.784 42.9638C427.131 44.0073 425.479 45.0442 423.827 46.0681C423.383 46.3388 423.1 46.6127 422.983 46.8899C422.875 47.1605 422.952 47.4834 423.217 47.8681C423.755 48.6507 424.079 49.4529 424.186 50.2812C424.303 51.116 424.312 51.9507 424.204 52.7855C423.868 54.9149 422.732 56.7181 420.792 58.1986C418.862 59.6855 416.428 60.5855 413.483 60.8986C412.32 61.0192 411.202 60.9312 410.125 60.6377C408.221 60.1584 407.409 59.1899 407.683 57.729C407.912 56.6855 408.41 55.7105 409.173 54.8073C410.188 53.4573 411.382 52.1986 412.747 51.0247C412.935 50.8747 413.115 50.7149 413.286 50.542C414.516 49.541 415.728 48.5334 416.913 47.516C417.416 47.0138 417.245 46.6649 416.41 46.4725C415.355 46.2834 414.314 46.3029 413.286 46.5377C412.554 46.7399 411.795 46.7986 411.005 46.7203C410.704 46.704 410.439 46.642 410.215 46.5377C409.986 46.4268 409.838 46.2475 409.766 46.0029C409.707 45.804 409.757 45.6377 409.909 45.5073C410.053 45.3768 410.219 45.266 410.412 45.1681C411.764 44.4834 413.003 43.7073 414.13 42.8464C415.266 41.9855 416.33 41.0953 417.326 40.1725C417.515 39.9736 417.798 39.6344 418.17 39.1551C418.552 38.6692 418.889 38.1475 419.176 37.5899C419.463 37.0257 419.544 36.5431 419.427 36.142C419.306 35.7442 418.853 35.5355 418.063 35.516C416.958 35.5616 415.961 35.8486 415.063 36.3768C414.175 36.9084 413.582 37.5703 413.286 38.3594C412.926 39.491 412.064 39.866 410.7 39.4812C409.779 39.2203 409.384 38.7312 409.514 38.0073C409.685 37.3029 410.094 36.6866 410.753 36.1551C412.105 35.1214 413.6 34.4399 415.243 34.1073C416.882 33.7681 418.628 33.7486 420.487 34.042C421.551 34.1823 422.305 34.4986 422.75 34.9942C423.19 35.4834 423.383 36.1355 423.324 36.9507C423.252 37.9355 422.839 38.8486 422.085 39.6899C421.115 40.7953 420.002 41.8388 418.745 42.8203C417.632 43.7594 417.218 44.3953 417.506 44.7247C417.802 45.0573 418.431 45.142 419.391 44.9855C420.361 44.8225 421.286 44.4866 422.175 43.9812C422.341 43.8866 422.489 43.792 422.624 43.6942C425.075 42.2268 427.589 40.8312 430.166 39.5073C430.597 39.3181 431.028 39.1551 431.459 39.0247C431.89 38.8877 432.348 38.8551 432.842 38.9334C433.282 38.979 433.588 39.129 433.758 39.3899ZM412.19 58.8768C412.823 59.1899 413.645 59.141 414.65 58.7334C415.665 58.3225 416.635 57.6507 417.56 56.7116C418.48 55.779 419.158 54.6834 419.589 53.4247C420.02 52.1627 419.971 50.8192 419.445 49.3942C419.145 49.6094 418.498 50.141 417.506 50.9855C416.509 51.8268 415.477 52.7888 414.399 53.8681C413.322 54.954 412.518 55.9616 411.993 56.8942C411.463 57.8334 411.53 58.492 412.19 58.8768Z" fill="#E3AE42"/>
</g>
<defs>
<clipPath id="clip0_35_115">
<rect width="431" height="72" fill="white"/>
</clipPath>
</defs>
</svg>
